<?xml version="1.0" encoding="utf-8"?>
<!-- Generator: Adobe Illustrator 16.0.4, SVG Export Plug-In . SVG Version: 6.00 Build 0)  -->
<!DOCTYPE svg PUBLIC "-//W3C//DTD SVG 1.1//EN" "http://www.w3.org/Graphics/SVG/1.1/DTD/svg11.dtd">
<svg version="1.1" id="Layer_1" xmlns="http://www.w3.org/2000/svg" xmlns:xlink="http://www.w3.org/1999/xlink" x="0px" y="0px"
	 width="99px" height="67px" viewBox="0 0 99 67" enable-background="new 0 0 99 67" xml:space="preserve">
<title>Combined Shape</title>
<desc>Created with Sketch.</desc>
<linearGradient id="SVGID_1_" gradientUnits="userSpaceOnUse" x1="18.1992" y1="33.9795" x2="80.1436" y2="33.9795">
	<stop  offset="0" style="stop-color:#FFC83E"/>
	<stop  offset="1" style="stop-color:#FA709A"/>
</linearGradient>
<path fill="url(#SVGID_1_)" d="M78.782,30.081c0,0,0.717-4.805-2.164-5.953c2.521-5.166-2.525-7.396-2.525-7.396
	s-3.066-7.757-6.494-7.757c-0.181-2.165-3.429-5.772-7.758-5.412c-5.051-3.607-9.99,0-9.99,0s-5.162-2.886-9.492,0
	c-4.33-1.804-9.201,5.773-9.201,5.773s-5.417,2.591-5.412,7.577c-3.253,0.967-4.871,5.412-3.609,6.675
	c-4.33,3.428-1.985,7.757-1.985,9.562c-4.148,6.133-0.476,7.017,0,8.659c-3.065,5.592,2.211,10.378,3.247,11.184
	c2.706,9.562,10.756,7.938,11.602,9.021c7.701,7.397,14.849,1.262,14.849,1.262s9.089,6.136,13.599,0
	c1.624,1.444,14.066-4.984,12.267-9.921c4.687-1.197,3.783-9.135,3.066-9.921C81.845,41.331,78.782,30.081,78.782,30.081z
	 M73.622,51.562c1.657,4.547-9.804,10.469-11.3,9.139c-4.153,5.65-12.525,0-12.525,0s-6.584,5.65-13.678-1.163
	c-0.779-0.998-8.194,0.499-10.687-8.308c-0.955-0.742-5.815-5.152-2.992-10.302c-0.438-1.514-3.82-2.328,0-7.977
	c0-1.663-2.159-5.65,1.829-8.808c-1.163-1.164,0.328-5.257,3.325-6.148c-0.006-4.593,4.985-6.979,4.985-6.979
	s4.486-6.979,8.474-5.317c3.988-2.659,8.744,0,8.744,0s4.55-3.323,9.202,0c3.987-0.332,6.979,2.991,7.146,4.985
	c3.158,0,5.982,7.146,5.982,7.146s4.647,2.054,2.326,6.812c2.654,1.058,1.993,5.484,1.993,5.484s2.82,10.362,0,12.296
	C77.107,43.148,77.938,50.458,73.622,51.562z"/>
<linearGradient id="SVGID_2_" gradientUnits="userSpaceOnUse" x1="40.4473" y1="19.731" x2="46.562" y2="19.731">
	<stop  offset="0" style="stop-color:#FFC83E"/>
	<stop  offset="1" style="stop-color:#FA709A"/>
</linearGradient>
<polyline fill="none" stroke="url(#SVGID_2_)" stroke-miterlimit="10" points="46.062,27.795 46.062,21.333 40.947,16.219 
	40.947,11.667 "/>
<linearGradient id="SVGID_3_" gradientUnits="userSpaceOnUse" x1="52.667" y1="19.731" x2="58.2051" y2="19.731">
	<stop  offset="0" style="stop-color:#FFC83E"/>
	<stop  offset="1" style="stop-color:#FA709A"/>
</linearGradient>
<polyline fill="none" stroke="url(#SVGID_3_)" stroke-miterlimit="10" points="53.167,27.795 53.167,21.667 57.705,17.129 
	57.705,11.667 "/>
<linearGradient id="SVGID_4_" gradientUnits="userSpaceOnUse" x1="29.4155" y1="27.4385" x2="43.5049" y2="27.4385">
	<stop  offset="0" style="stop-color:#FFC83E"/>
	<stop  offset="1" style="stop-color:#FA709A"/>
</linearGradient>
<polyline fill="none" stroke="url(#SVGID_4_)" stroke-miterlimit="10" points="43.505,30.667 39.333,30.667 36.5,26.795 
	32.5,26.795 29.769,24.064 "/>
<linearGradient id="SVGID_5_" gradientUnits="userSpaceOnUse" x1="56.0762" y1="28.417" x2="68.833" y2="28.417">
	<stop  offset="0" style="stop-color:#FFC83E"/>
	<stop  offset="1" style="stop-color:#FA709A"/>
</linearGradient>
<polyline fill="none" stroke="url(#SVGID_5_)" stroke-miterlimit="10" points="56.076,31 59.333,31 61.167,28.365 64.833,28.365 
	66.833,25.833 68.833,25.833 "/>
<linearGradient id="SVGID_6_" gradientUnits="userSpaceOnUse" x1="28.6665" y1="40.917" x2="43.5049" y2="40.917">
	<stop  offset="0" style="stop-color:#FFC83E"/>
	<stop  offset="1" style="stop-color:#FA709A"/>
</linearGradient>
<polyline fill="none" stroke="url(#SVGID_6_)" stroke-miterlimit="10" points="43.505,37.167 39.333,37.167 36.637,41 33,41 
	30.833,44.667 28.667,44.667 "/>
<linearGradient id="SVGID_7_" gradientUnits="userSpaceOnUse" x1="56.0762" y1="40.5" x2="71" y2="40.5">
	<stop  offset="0" style="stop-color:#FFC83E"/>
	<stop  offset="1" style="stop-color:#FA709A"/>
</linearGradient>
<polyline fill="none" stroke="url(#SVGID_7_)" stroke-miterlimit="10" points="56.076,37.167 59.167,37.167 62.455,40.287 
	66.667,40.287 68.833,43.833 71,43.833 "/>
<linearGradient id="SVGID_8_" gradientUnits="userSpaceOnUse" x1="40.8911" y1="47.8936" x2="46.562" y2="47.8936">
	<stop  offset="0" style="stop-color:#FFC83E"/>
	<stop  offset="1" style="stop-color:#FA709A"/>
</linearGradient>
<polyline fill="none" stroke="url(#SVGID_8_)" stroke-miterlimit="10" points="46.062,40.287 46.062,44.667 43.283,47.445 
	43.283,50.333 41.391,52.225 41.391,55.5 "/>
<linearGradient id="SVGID_9_" gradientUnits="userSpaceOnUse" x1="52.667" y1="47.2266" x2="62.8242" y2="47.2266">
	<stop  offset="0" style="stop-color:#FFC83E"/>
	<stop  offset="1" style="stop-color:#FA709A"/>
</linearGradient>
<polyline fill="none" stroke="url(#SVGID_9_)" stroke-miterlimit="10" points="53.167,40.287 53.167,46.667 56.686,50.186 
	60.667,50.186 62.324,51.842 62.324,54.167 "/>
<linearGradient id="SVGID_10_" gradientUnits="userSpaceOnUse" x1="55.7041" y1="10.166" x2="59.7061" y2="10.166">
	<stop  offset="0" style="stop-color:#FFC83E"/>
	<stop  offset="1" style="stop-color:#FA709A"/>
</linearGradient>
<circle fill="none" stroke="url(#SVGID_10_)" stroke-miterlimit="10" cx="57.705" cy="10.166" r="1.501"/>
<linearGradient id="SVGID_11_" gradientUnits="userSpaceOnUse" x1="68.333" y1="25.834" x2="72.335" y2="25.834">
	<stop  offset="0" style="stop-color:#FFC83E"/>
	<stop  offset="1" style="stop-color:#FA709A"/>
</linearGradient>
<circle fill="none" stroke="url(#SVGID_11_)" stroke-miterlimit="10" cx="70.334" cy="25.833" r="1.501"/>
<linearGradient id="SVGID_12_" gradientUnits="userSpaceOnUse" x1="70.5" y1="43.834" x2="74.502" y2="43.834">
	<stop  offset="0" style="stop-color:#FFC83E"/>
	<stop  offset="1" style="stop-color:#FA709A"/>
</linearGradient>
<circle fill="none" stroke="url(#SVGID_12_)" stroke-miterlimit="10" cx="72.501" cy="43.833" r="1.501"/>
<linearGradient id="SVGID_13_" gradientUnits="userSpaceOnUse" x1="60.3232" y1="55.5" x2="64.3252" y2="55.5">
	<stop  offset="0" style="stop-color:#FFC83E"/>
	<stop  offset="1" style="stop-color:#FA709A"/>
</linearGradient>
<circle fill="none" stroke="url(#SVGID_13_)" stroke-miterlimit="10" cx="62.324" cy="55.5" r="1.501"/>
<linearGradient id="SVGID_14_" gradientUnits="userSpaceOnUse" x1="39.3901" y1="57" x2="43.3921" y2="57">
	<stop  offset="0" style="stop-color:#FFC83E"/>
	<stop  offset="1" style="stop-color:#FA709A"/>
</linearGradient>
<circle fill="none" stroke="url(#SVGID_14_)" stroke-miterlimit="10" cx="41.391" cy="57" r="1.501"/>
<linearGradient id="SVGID_15_" gradientUnits="userSpaceOnUse" x1="25.1646" y1="44.666" x2="29.1665" y2="44.666">
	<stop  offset="0" style="stop-color:#FFC83E"/>
	<stop  offset="1" style="stop-color:#FA709A"/>
</linearGradient>
<circle fill="none" stroke="url(#SVGID_15_)" stroke-miterlimit="10" cx="27.166" cy="44.666" r="1.501"/>
<linearGradient id="SVGID_16_" gradientUnits="userSpaceOnUse" x1="26.5913" y1="23.1436" x2="30.5933" y2="23.1436">
	<stop  offset="0" style="stop-color:#FFC83E"/>
	<stop  offset="1" style="stop-color:#FA709A"/>
</linearGradient>
<circle fill="none" stroke="url(#SVGID_16_)" stroke-miterlimit="10" cx="28.592" cy="23.143" r="1.501"/>
<linearGradient id="SVGID_17_" gradientUnits="userSpaceOnUse" x1="46.6875" y1="34.333" x2="52.9717" y2="34.333">
	<stop  offset="0" style="stop-color:#FFC83E"/>
	<stop  offset="1" style="stop-color:#FA709A"/>
</linearGradient>
<path fill="url(#SVGID_17_)" d="M52.972,36.229c0,0.688-0.559,1.246-1.247,1.246h-3.79c-0.689,0-1.247-0.558-1.247-1.246v-3.791
	c0-0.688,0.558-1.247,1.247-1.247h3.79c0.688,0,1.247,0.558,1.247,1.247V36.229z"/>
<linearGradient id="SVGID_18_" gradientUnits="userSpaceOnUse" x1="45.3125" y1="20.084" x2="49.3135" y2="20.084">
	<stop  offset="0" style="stop-color:#FFC83E"/>
	<stop  offset="1" style="stop-color:#FA709A"/>
</linearGradient>
<polyline fill="none" stroke="url(#SVGID_18_)" stroke-miterlimit="10" points="48.813,27.334 48.813,19 45.812,15.999 
	45.812,12.833 "/>
<linearGradient id="SVGID_19_" gradientUnits="userSpaceOnUse" x1="50" y1="18.75" x2="53.4717" y2="18.75">
	<stop  offset="0" style="stop-color:#FFC83E"/>
	<stop  offset="1" style="stop-color:#FA709A"/>
</linearGradient>
<polyline fill="none" stroke="url(#SVGID_19_)" stroke-miterlimit="10" points="50.5,27.334 50.5,17 52.972,15.75 52.972,13.667 
	50.5,11.667 50.5,10.166 "/>
<linearGradient id="SVGID_20_" gradientUnits="userSpaceOnUse" x1="56.2041" y1="31.752" x2="68.9004" y2="31.752">
	<stop  offset="0" style="stop-color:#FFC83E"/>
	<stop  offset="1" style="stop-color:#FA709A"/>
</linearGradient>
<polyline fill="none" stroke="url(#SVGID_20_)" stroke-miterlimit="10" points="56.204,32.833 62.324,32.833 65,31.191 
	68.833,30.667 "/>
<linearGradient id="SVGID_21_" gradientUnits="userSpaceOnUse" x1="56.2041" y1="36.084" x2="71.835" y2="36.084">
	<stop  offset="0" style="stop-color:#FFC83E"/>
	<stop  offset="1" style="stop-color:#FA709A"/>
</linearGradient>
<polyline fill="none" stroke="url(#SVGID_21_)" stroke-miterlimit="10" points="56.204,35 62.519,35 64.667,37.167 68.833,37.167 
	70.334,36.084 71.835,36.084 "/>
<linearGradient id="SVGID_22_" gradientUnits="userSpaceOnUse" x1="29.769" y1="31.75" x2="42.8921" y2="31.75">
	<stop  offset="0" style="stop-color:#FFC83E"/>
	<stop  offset="1" style="stop-color:#FA709A"/>
</linearGradient>
<polyline fill="none" stroke="url(#SVGID_22_)" stroke-miterlimit="10" points="42.892,32.833 37.667,32.833 33.333,30.667 
	29.769,30.667 "/>
<linearGradient id="SVGID_23_" gradientUnits="userSpaceOnUse" x1="26.3335" y1="36.084" x2="42.8921" y2="36.084">
	<stop  offset="0" style="stop-color:#FFC83E"/>
	<stop  offset="1" style="stop-color:#FA709A"/>
</linearGradient>
<polyline fill="none" stroke="url(#SVGID_23_)" stroke-miterlimit="10" points="42.892,35 36.637,35 34,37.167 30.093,37.167 
	28.592,35 26.333,35 "/>
<linearGradient id="SVGID_24_" gradientUnits="userSpaceOnUse" x1="46.813" y1="48.209" x2="49.3135" y2="48.209">
	<stop  offset="0" style="stop-color:#FFC83E"/>
	<stop  offset="1" style="stop-color:#FA709A"/>
</linearGradient>
<polyline fill="none" stroke="url(#SVGID_24_)" stroke-miterlimit="10" points="48.813,40.917 48.813,44.667 47.313,47.894 
	47.313,51.833 48.813,54 48.813,55.5 "/>
<linearGradient id="SVGID_25_" gradientUnits="userSpaceOnUse" x1="50" y1="48.209" x2="54.833" y2="48.209">
	<stop  offset="0" style="stop-color:#FFC83E"/>
	<stop  offset="1" style="stop-color:#FA709A"/>
</linearGradient>
<polyline fill="none" stroke="url(#SVGID_25_)" stroke-miterlimit="10" points="50.5,40.917 50.5,46.167 51.736,49.667 
	51.736,51.667 54.333,53.333 54.333,55.5 "/>
<linearGradient id="SVGID_26_" gradientUnits="userSpaceOnUse" x1="49.25" y1="10.166" x2="51.75" y2="10.166">
	<stop  offset="0" style="stop-color:#FFC83E"/>
	<stop  offset="1" style="stop-color:#FA709A"/>
</linearGradient>
<circle fill="url(#SVGID_26_)" cx="50.5" cy="10.166" r="1.25"/>
<linearGradient id="SVGID_27_" gradientUnits="userSpaceOnUse" x1="44.5625" y1="12.8335" x2="47.0625" y2="12.8335">
	<stop  offset="0" style="stop-color:#FFC83E"/>
	<stop  offset="1" style="stop-color:#FA709A"/>
</linearGradient>
<circle fill="url(#SVGID_27_)" cx="45.812" cy="12.833" r="1.25"/>
<linearGradient id="SVGID_28_" gradientUnits="userSpaceOnUse" x1="67.583" y1="30.6665" x2="70.083" y2="30.6665">
	<stop  offset="0" style="stop-color:#FFC83E"/>
	<stop  offset="1" style="stop-color:#FA709A"/>
</linearGradient>
<circle fill="url(#SVGID_28_)" cx="68.833" cy="30.667" r="1.25"/>
<linearGradient id="SVGID_29_" gradientUnits="userSpaceOnUse" x1="70.585" y1="36.084" x2="73.085" y2="36.084">
	<stop  offset="0" style="stop-color:#FFC83E"/>
	<stop  offset="1" style="stop-color:#FA709A"/>
</linearGradient>
<circle fill="url(#SVGID_29_)" cx="71.835" cy="36.084" r="1.25"/>
<linearGradient id="SVGID_30_" gradientUnits="userSpaceOnUse" x1="53.083" y1="55.5" x2="55.583" y2="55.5">
	<stop  offset="0" style="stop-color:#FFC83E"/>
	<stop  offset="1" style="stop-color:#FA709A"/>
</linearGradient>
<circle fill="url(#SVGID_30_)" cx="54.333" cy="55.5" r="1.25"/>
<linearGradient id="SVGID_31_" gradientUnits="userSpaceOnUse" x1="47.5635" y1="55.5" x2="50.0635" y2="55.5">
	<stop  offset="0" style="stop-color:#FFC83E"/>
	<stop  offset="1" style="stop-color:#FA709A"/>
</linearGradient>
<circle fill="url(#SVGID_31_)" cx="48.813" cy="55.5" r="1.25"/>
<linearGradient id="SVGID_32_" gradientUnits="userSpaceOnUse" x1="25.0835" y1="35" x2="27.5835" y2="35">
	<stop  offset="0" style="stop-color:#FFC83E"/>
	<stop  offset="1" style="stop-color:#FA709A"/>
</linearGradient>
<circle fill="url(#SVGID_32_)" cx="26.333" cy="35" r="1.25"/>
<linearGradient id="SVGID_33_" gradientUnits="userSpaceOnUse" x1="28.519" y1="30.6665" x2="31.019" y2="30.6665">
	<stop  offset="0" style="stop-color:#FFC83E"/>
	<stop  offset="1" style="stop-color:#FA709A"/>
</linearGradient>
<circle fill="url(#SVGID_33_)" cx="29.769" cy="30.667" r="1.25"/>
<linearGradient id="SVGID_34_" gradientUnits="userSpaceOnUse" x1="43.084" y1="34.041" x2="56.5762" y2="34.041">
	<stop  offset="0" style="stop-color:#FFC83E"/>
	<stop  offset="1" style="stop-color:#FA709A"/>
</linearGradient>
<path fill="none" stroke="url(#SVGID_34_)" stroke-miterlimit="10" d="M56.076,37.809c0,1.369-1.11,2.479-2.479,2.479h-7.536
	c-1.369,0-2.478-1.109-2.478-2.479v-7.536c0-1.368,1.109-2.478,2.478-2.478h7.536c1.368,0,2.479,1.109,2.479,2.478V37.809z"/>
<linearGradient id="SVGID_35_" gradientUnits="userSpaceOnUse" x1="38.8325" y1="10.166" x2="42.8335" y2="10.166">
	<stop  offset="0" style="stop-color:#FFC83E"/>
	<stop  offset="1" style="stop-color:#FA709A"/>
</linearGradient>
<circle fill="none" stroke="url(#SVGID_35_)" stroke-miterlimit="10" cx="40.833" cy="10.166" r="1.5"/>
<linearGradient id="SVGID_36_" gradientUnits="userSpaceOnUse" x1="33.0308" y1="18.2427" x2="40.7861" y2="18.2427">
	<stop  offset="0" style="stop-color:#FFC83E"/>
	<stop  offset="1" style="stop-color:#FA709A"/>
</linearGradient>
<polyline fill="none" stroke="url(#SVGID_36_)" stroke-miterlimit="10" points="33.5,15.75 34.613,18.75 38,18.75 40.5,20.5 "/>
<linearGradient id="SVGID_37_" gradientUnits="userSpaceOnUse" x1="36.0054" y1="23.3203" x2="42.7866" y2="23.3203">
	<stop  offset="0" style="stop-color:#FFC83E"/>
	<stop  offset="1" style="stop-color:#FA709A"/>
</linearGradient>
<polyline fill="none" stroke="url(#SVGID_37_)" stroke-miterlimit="10" points="36.331,21.643 38.083,23.144 41.391,23.144 
	42.333,25.166 "/>
<linearGradient id="SVGID_38_" gradientUnits="userSpaceOnUse" x1="56.083" y1="20.7959" x2="64.458" y2="20.7959">
	<stop  offset="0" style="stop-color:#FFC83E"/>
	<stop  offset="1" style="stop-color:#FA709A"/>
</linearGradient>
<polyline fill="none" stroke="url(#SVGID_38_)" stroke-miterlimit="10" points="56.583,25.166 56.583,22.333 59.206,19.416 
	62.519,19.416 64.02,16.666 "/>
<linearGradient id="SVGID_39_" gradientUnits="userSpaceOnUse" x1="59.833" y1="22.8535" x2="67.916" y2="22.8535">
	<stop  offset="0" style="stop-color:#FFC83E"/>
	<stop  offset="1" style="stop-color:#FA709A"/>
</linearGradient>
<polyline fill="none" stroke="url(#SVGID_39_)" stroke-miterlimit="10" points="59.833,24.064 63.538,24.064 65.25,21.643 
	67.916,21.643 "/>
<linearGradient id="SVGID_40_" gradientUnits="userSpaceOnUse" x1="31.019" y1="45.5" x2="40.9473" y2="45.5">
	<stop  offset="0" style="stop-color:#FFC83E"/>
	<stop  offset="1" style="stop-color:#FA709A"/>
</linearGradient>
<polyline fill="none" stroke="url(#SVGID_40_)" stroke-miterlimit="10" points="31.019,48.666 34.613,48.666 35.583,46.167 
	38,45.833 39.89,42.333 40.947,42.333 "/>
<linearGradient id="SVGID_41_" gradientUnits="userSpaceOnUse" x1="57.4131" y1="44.0752" x2="66.5693" y2="44.0752">
	<stop  offset="0" style="stop-color:#FFC83E"/>
	<stop  offset="1" style="stop-color:#FA709A"/>
</linearGradient>
<polyline fill="none" stroke="url(#SVGID_41_)" stroke-miterlimit="10" points="57.746,41.916 60.823,44.666 63.538,44.666 
	66.333,46.167 "/>
<linearGradient id="SVGID_42_" gradientUnits="userSpaceOnUse" x1="36.1367" y1="51.083" x2="40.4995" y2="51.083">
	<stop  offset="0" style="stop-color:#FFC83E"/>
	<stop  offset="1" style="stop-color:#FA709A"/>
</linearGradient>
<polyline fill="none" stroke="url(#SVGID_42_)" stroke-miterlimit="10" points="36.637,54 36.637,50.75 39.332,48.666 40.5,48.666 
	"/>
<linearGradient id="SVGID_43_" gradientUnits="userSpaceOnUse" x1="63.2256" y1="48.834" x2="68.25" y2="48.834">
	<stop  offset="0" style="stop-color:#FFC83E"/>
	<stop  offset="1" style="stop-color:#FA709A"/>
</linearGradient>
<polyline fill="none" stroke="url(#SVGID_43_)" stroke-miterlimit="10" points="63.538,47.894 65.75,49.666 68.25,49.666 "/>
<linearGradient id="SVGID_44_" gradientUnits="userSpaceOnUse" x1="65.333" y1="46.584" x2="68.502" y2="46.584">
	<stop  offset="0" style="stop-color:#FFC83E"/>
	<stop  offset="1" style="stop-color:#FA709A"/>
</linearGradient>
<circle fill="none" stroke="url(#SVGID_44_)" stroke-miterlimit="10" cx="66.917" cy="46.584" r="1.084"/>
<linearGradient id="SVGID_45_" gradientUnits="userSpaceOnUse" x1="55.5762" y1="41.584" x2="58.7451" y2="41.584">
	<stop  offset="0" style="stop-color:#FFC83E"/>
	<stop  offset="1" style="stop-color:#FA709A"/>
</linearGradient>
<circle fill="none" stroke="url(#SVGID_45_)" stroke-miterlimit="10" cx="57.161" cy="41.584" r="1.084"/>
<linearGradient id="SVGID_46_" gradientUnits="userSpaceOnUse" x1="67.502" y1="49.666" x2="70.6709" y2="49.666">
	<stop  offset="0" style="stop-color:#FFC83E"/>
	<stop  offset="1" style="stop-color:#FA709A"/>
</linearGradient>
<circle fill="none" stroke="url(#SVGID_46_)" stroke-miterlimit="10" cx="69.086" cy="49.667" r="1.084"/>
<linearGradient id="SVGID_47_" gradientUnits="userSpaceOnUse" x1="67.249" y1="21.6431" x2="70.418" y2="21.6431">
	<stop  offset="0" style="stop-color:#FFC83E"/>
	<stop  offset="1" style="stop-color:#FA709A"/>
</linearGradient>
<circle fill="none" stroke="url(#SVGID_47_)" stroke-miterlimit="10" cx="68.833" cy="21.644" r="1.084"/>
<linearGradient id="SVGID_48_" gradientUnits="userSpaceOnUse" x1="31.4878" y1="14.833" x2="34.6567" y2="14.833">
	<stop  offset="0" style="stop-color:#FFC83E"/>
	<stop  offset="1" style="stop-color:#FA709A"/>
</linearGradient>
<circle fill="none" stroke="url(#SVGID_48_)" stroke-miterlimit="10" cx="33.072" cy="14.833" r="1.084"/>
<linearGradient id="SVGID_49_" gradientUnits="userSpaceOnUse" x1="63.0381" y1="15.9165" x2="66.207" y2="15.9165">
	<stop  offset="0" style="stop-color:#FFC83E"/>
	<stop  offset="1" style="stop-color:#FA709A"/>
</linearGradient>
<circle fill="none" stroke="url(#SVGID_49_)" stroke-miterlimit="10" cx="64.623" cy="15.917" r="1.084"/>
<linearGradient id="SVGID_50_" gradientUnits="userSpaceOnUse" x1="54.998" y1="26.2495" x2="58.167" y2="26.2495">
	<stop  offset="0" style="stop-color:#FFC83E"/>
	<stop  offset="1" style="stop-color:#FA709A"/>
</linearGradient>
<circle fill="none" stroke="url(#SVGID_50_)" stroke-miterlimit="10" cx="56.583" cy="26.25" r="1.084"/>
<linearGradient id="SVGID_51_" gradientUnits="userSpaceOnUse" x1="41.3076" y1="25.8335" x2="44.4766" y2="25.8335">
	<stop  offset="0" style="stop-color:#FFC83E"/>
	<stop  offset="1" style="stop-color:#FA709A"/>
</linearGradient>
<circle fill="none" stroke="url(#SVGID_51_)" stroke-miterlimit="10" cx="42.892" cy="25.834" r="1.084"/>
<linearGradient id="SVGID_52_" gradientUnits="userSpaceOnUse" x1="40.2231" y1="42.332" x2="43.3921" y2="42.332">
	<stop  offset="0" style="stop-color:#FFC83E"/>
	<stop  offset="1" style="stop-color:#FA709A"/>
</linearGradient>
<circle fill="none" stroke="url(#SVGID_52_)" stroke-miterlimit="10" cx="41.808" cy="42.333" r="1.084"/>
<linearGradient id="SVGID_53_" gradientUnits="userSpaceOnUse" x1="28.1846" y1="48.7793" x2="31.3535" y2="48.7793">
	<stop  offset="0" style="stop-color:#FFC83E"/>
	<stop  offset="1" style="stop-color:#FA709A"/>
</linearGradient>
<circle fill="none" stroke="url(#SVGID_53_)" stroke-miterlimit="10" cx="29.769" cy="48.78" r="1.084"/>
<linearGradient id="SVGID_54_" gradientUnits="userSpaceOnUse" x1="35.0522" y1="55.084" x2="38.2212" y2="55.084">
	<stop  offset="0" style="stop-color:#FFC83E"/>
	<stop  offset="1" style="stop-color:#FA709A"/>
</linearGradient>
<circle fill="none" stroke="url(#SVGID_54_)" stroke-miterlimit="10" cx="36.637" cy="55.084" r="1.084"/>
<linearGradient id="SVGID_55_" gradientUnits="userSpaceOnUse" x1="58.583" y1="24.0645" x2="61.083" y2="24.0645">
	<stop  offset="0" style="stop-color:#FFC83E"/>
	<stop  offset="1" style="stop-color:#FA709A"/>
</linearGradient>
<circle fill="url(#SVGID_55_)" cx="59.833" cy="24.064" r="1.25"/>
<linearGradient id="SVGID_56_" gradientUnits="userSpaceOnUse" x1="34.8359" y1="21.6431" x2="37.3359" y2="21.6431">
	<stop  offset="0" style="stop-color:#FFC83E"/>
	<stop  offset="1" style="stop-color:#FA709A"/>
</linearGradient>
<circle fill="url(#SVGID_56_)" cx="36.086" cy="21.643" r="1.25"/>
<linearGradient id="SVGID_57_" gradientUnits="userSpaceOnUse" x1="39.2495" y1="48.583" x2="41.7495" y2="48.583">
	<stop  offset="0" style="stop-color:#FFC83E"/>
	<stop  offset="1" style="stop-color:#FA709A"/>
</linearGradient>
<circle fill="url(#SVGID_57_)" cx="40.5" cy="48.583" r="1.25"/>
<linearGradient id="SVGID_58_" gradientUnits="userSpaceOnUse" x1="62.04" y1="47.667" x2="64.54" y2="47.667">
	<stop  offset="0" style="stop-color:#FFC83E"/>
	<stop  offset="1" style="stop-color:#FA709A"/>
</linearGradient>
<circle fill="url(#SVGID_58_)" cx="63.29" cy="47.667" r="1.25"/>
<linearGradient id="SVGID_59_" gradientUnits="userSpaceOnUse" x1="39.8066" y1="20.916" x2="42.9756" y2="20.916">
	<stop  offset="0" style="stop-color:#FFC83E"/>
	<stop  offset="1" style="stop-color:#FA709A"/>
</linearGradient>
<circle fill="none" stroke="url(#SVGID_59_)" stroke-miterlimit="10" cx="41.391" cy="20.917" r="1.084"/>
</svg>
